<svg width="17" height="21" viewBox="0 0 17 21" fill="none" xmlns="http://www.w3.org/2000/svg">
<path fill-rule="evenodd" clip-rule="evenodd" d="M7.03377 18.4306C7.48702 18.9595 8.0689 19.2501 8.67265 19.2501H8.67352C9.2799 19.2501 9.8644 18.9595 10.3185 18.4297C10.5618 18.1482 10.9765 18.1253 11.2451 18.3792C11.5146 18.6332 11.5365 19.0686 11.2941 19.35C10.5871 20.1722 9.65702 20.6251 8.67352 20.6251H8.67177C7.6909 20.6242 6.76252 20.1713 6.05815 19.3491C5.81577 19.0677 5.83765 18.6322 6.10715 18.3792C6.37665 18.1244 6.7914 18.1473 7.03377 18.4306ZM8.71622 0.916748C12.6056 0.916748 15.2183 4.09025 15.2183 7.05383C15.2183 8.57825 15.5885 9.2245 15.9813 9.91016C16.3698 10.5867 16.81 11.3548 16.81 12.8068C16.5046 16.5166 12.8077 16.8191 8.71622 16.8191C4.62472 16.8191 0.926975 16.5166 0.625088 12.8655C0.622475 11.3548 1.0626 10.5867 1.4511 9.91016L1.58825 9.66831C1.92594 9.06028 2.2141 8.39891 2.2141 7.05383C2.2141 4.09025 4.82685 0.916748 8.71622 0.916748ZM8.71622 2.29175C5.6581 2.29175 3.5266 4.80158 3.5266 7.05383C3.5266 8.95958 3.02172 9.8405 2.57547 10.6178C2.2176 11.2421 1.93497 11.7352 1.93497 12.8068C2.0811 14.5357 3.17047 15.4441 8.71622 15.4441C14.2313 15.4441 15.3548 14.4953 15.5001 12.7472C15.4975 11.7352 15.2148 11.2421 14.857 10.6178C14.4107 9.8405 13.9058 8.95958 13.9058 7.05383C13.9058 4.80158 11.7743 2.29175 8.71622 2.29175Z" fill="#EDF2F7"/>
</svg>
