<svg width="22" height="22" viewBox="0 0 22 22" fill="none" xmlns="http://www.w3.org/2000/svg">
<g clip-path="url(#clip0_877_88)">
<path d="M15.6181 13.6362C17.1142 13.5064 18.5756 14.0994 18.8863 15.2103C19.1969 16.3206 17.8506 17.4785 16.4018 17.8838C14.953 18.289 13.5056 17.4022 13.195 16.2918C12.8841 15.1803 13.9742 13.7772 15.6181 13.6362Z" fill="#EDF2F7"/>
<path d="M13.8319 11.9069C13.2194 10.925 13.8816 9.30444 15.4383 8.74766C16.855 8.2425 18.4403 8.43148 19.0548 9.41547C19.669 10.3982 18.6857 11.8488 17.3928 12.606C16.0996 13.3646 14.4464 12.8883 13.8319 11.9069Z" fill="#EDF2F7"/>
<path d="M11.3561 5.27849C12.4512 4.27222 13.9984 3.82764 14.9848 4.47737C15.9714 5.12309 15.6794 6.81461 14.806 8.00223C13.9344 9.18871 12.2016 9.40049 11.2141 8.75172C10.2283 8.10382 10.1518 6.38481 11.3561 5.27849Z" fill="#EDF2F7"/>
<path d="M8.64783 2.95108C9.72877 3.12696 10.1514 4.61332 9.88692 5.89567C9.62368 7.17766 8.25462 7.97453 7.17304 7.79883C6.0908 7.62331 5.3494 6.24513 5.92106 4.90967C6.44288 3.69312 7.56577 2.77617 8.64783 2.95108Z" fill="#EDF2F7"/>
<path d="M12.6672 11.2707C13.5849 13.8808 12.3833 17.7941 9.7779 18.5228C7.17246 19.2516 4.3407 16.9827 3.55248 14.3306C2.34045 10.235 4.3689 8.69609 7.05765 8.43603C9.84463 8.16817 12.0116 9.41199 12.6672 11.2707Z" fill="#EDF2F7"/>
</g>
<defs>
<clipPath id="clip0_877_88">
<rect width="17.5152" height="17.5152" fill="white" transform="matrix(-0.269368 -0.963037 -0.963037 0.269368 21.996 17.2396)"/>
</clipPath>
</defs>
</svg>
