<svg width="21" height="22" viewBox="0 0 21 22" fill="none" xmlns="http://www.w3.org/2000/svg">
<path fill-rule="evenodd" clip-rule="evenodd" d="M9.0337 18.4306C9.48695 18.9595 10.0688 19.2501 10.6726 19.2501H10.6734C11.2798 19.2501 11.8643 18.9595 12.3184 18.4297C12.5617 18.1482 12.9764 18.1253 13.2451 18.3792C13.5146 18.6332 13.5364 19.0686 13.2941 19.35C12.5871 20.1722 11.6569 20.6251 10.6734 20.6251H10.6717C9.69082 20.6242 8.76245 20.1713 8.05807 19.3491C7.8157 19.0677 7.83757 18.6322 8.10707 18.3792C8.37657 18.1244 8.79132 18.1473 9.0337 18.4306ZM10.7161 0.916748C14.6055 0.916748 17.2183 4.09025 17.2183 7.05383C17.2183 8.57825 17.5884 9.2245 17.9813 9.91016C18.3698 10.5867 18.8099 11.3548 18.8099 12.8068C18.5045 16.5166 14.8076 16.8191 10.7161 16.8191C6.62465 16.8191 2.9269 16.5166 2.62501 12.8655C2.6224 11.3548 3.06252 10.5867 3.45102 9.91016L3.58817 9.66831C3.92586 9.06028 4.21402 8.39891 4.21402 7.05383C4.21402 4.09025 6.82677 0.916748 10.7161 0.916748ZM10.7161 2.29175C7.65802 2.29175 5.52652 4.80158 5.52652 7.05383C5.52652 8.95958 5.02165 9.8405 4.5754 10.6178C4.21752 11.2421 3.9349 11.7352 3.9349 12.8068C4.08102 14.5357 5.1704 15.4441 10.7161 15.4441C16.2313 15.4441 17.3548 14.4953 17.5 12.7472C17.4974 11.7352 17.2148 11.2421 16.8569 10.6178C16.4106 9.8405 15.9058 8.95958 15.9058 7.05383C15.9058 4.80158 13.7743 2.29175 10.7161 2.29175Z" fill="#17171B"/>
</svg>
