<svg width="32" height="32" viewBox="0 0 32 32" fill="none" xmlns="http://www.w3.org/2000/svg">
<g clip-path="url(#clip0_1779_1036)">
<path d="M8.54604 8.9605C8.2956 8.89582 8.03967 9.04644 7.97492 9.29707L7.79092 10.0089C7.7261 10.2596 7.87679 10.5153 8.12742 10.5801C8.37704 10.6445 8.63354 10.4953 8.69854 10.2436L8.88254 9.53169C8.94729 9.281 8.79667 9.02532 8.54604 8.9605Z" fill="#EDF2F7"/>
<path d="M15.9549 10.8755C15.7044 10.8108 15.4485 10.9614 15.3837 11.2121L15.1997 11.9239C15.1228 12.2216 15.3483 12.51 15.6539 12.51C15.8625 12.51 16.0528 12.3697 16.1074 12.1584L16.2914 11.4466C16.3561 11.196 16.2055 10.9403 15.9549 10.8755Z" fill="#EDF2F7"/>
<path d="M13.5199 12.1306C13.2694 12.0658 13.0135 12.2165 12.9488 12.4671C12.9209 12.5749 12.8527 12.6654 12.7568 12.722C12.4374 12.9101 12.0491 12.6156 12.1414 12.2584L12.2506 11.8362L12.4634 11.8912C12.7134 11.9557 12.9696 11.8061 13.0346 11.5547C13.0994 11.3041 12.9487 11.0483 12.6981 10.9835L11.3648 10.6389C11.1144 10.5742 10.8584 10.7247 10.7937 10.9754C10.7289 11.2261 10.8796 11.4818 11.1302 11.5466L11.343 11.6016L11.2338 12.0238C11.2059 12.1317 11.1378 12.2222 11.0418 12.2787C10.7246 12.4656 10.3334 12.1756 10.4265 11.8151C10.4913 11.5645 10.3406 11.3087 10.09 11.244C9.83925 11.1792 9.58362 11.3298 9.51881 11.5805C9.22731 12.7082 10.4026 13.6454 11.432 13.1327C12.0902 14.0856 13.5667 13.8225 13.8564 12.7017C13.9212 12.4511 13.7705 12.1954 13.5199 12.1306Z" fill="#EDF2F7"/>
<path d="M20.539 14.5089C20.2885 14.4442 20.0327 14.5948 19.9678 14.8454L19.8023 15.4859C19.7253 15.7836 19.9508 16.0721 20.2565 16.0721C20.465 16.0721 20.6554 15.9319 20.71 15.7206L20.8755 15.0801C20.9403 14.8294 20.7897 14.5737 20.539 14.5089Z" fill="#EDF2F7"/>
<path d="M27.2055 16.2321C26.9548 16.1674 26.6991 16.318 26.6343 16.5687L26.4688 17.2093C26.3918 17.5069 26.6173 17.7954 26.923 17.7954C27.1315 17.7954 27.3218 17.6551 27.3765 17.4438L27.542 16.8033C27.6068 16.5526 27.4561 16.2969 27.2055 16.2321Z" fill="#EDF2F7"/>
<path d="M25.0142 17.3615C24.7638 17.2969 24.5079 17.4474 24.4431 17.6981C24.4211 17.7829 24.3674 17.8542 24.2919 17.8987C24.0417 18.0462 23.7344 17.8165 23.8076 17.5338C23.8724 17.2831 23.7217 17.0274 23.4711 16.9626C23.2207 16.8978 22.9647 17.0485 22.8999 17.2991C22.8546 17.4744 22.6753 17.5801 22.5 17.5348C22.3248 17.4895 22.2191 17.3101 22.2643 17.1349C22.3291 16.8842 22.1784 16.6285 21.9278 16.5637C21.6774 16.499 21.4214 16.6496 21.3566 16.9002C21.0919 17.9246 22.1373 18.811 23.1069 18.3674C23.7334 19.2196 25.084 18.9649 25.3508 17.9327C25.4155 17.682 25.2648 17.4263 25.0142 17.3615Z" fill="#EDF2F7"/>
<path d="M24.5943 9.11893C24.7311 9.31506 24.9573 9.43824 25.2141 9.43387C33.2908 9.25874 31.6327 2.82312 27.835 3.50906C26.1477 0.0312504 19.9772 2.49581 24.5943 9.11893ZM27.1109 4.21075C27.1926 4.452 27.4523 4.58368 27.6951 4.50762C30.477 3.63569 31.9615 8.30012 25.3019 8.49374C21.5318 2.9995 26.1751 1.44919 27.1109 4.21075Z" fill="#EDF2F7"/>
<path d="M26.8866 30.0654C27.5385 30.0654 28.1483 29.8082 28.6035 29.3414C29.0568 28.8765 29.2974 28.2637 29.281 27.6159C29.2657 27.0071 29.2018 26.4109 29.0914 25.8437C29.0419 25.5896 28.7955 25.4237 28.5416 25.4732C28.2875 25.5227 28.1216 25.7688 28.1711 26.023C28.2717 26.5391 28.3297 27.0829 28.3438 27.6396C28.3537 28.0326 28.2075 28.4045 27.9322 28.6869C27.6549 28.9712 27.2836 29.1277 26.8866 29.1277H25.3674C26.1667 27.4492 25.7526 25.3497 25.7317 25.2474C25.6798 24.994 25.4325 24.8307 25.179 24.8822C24.9255 24.9337 24.7617 25.1812 24.8129 25.4347C24.8177 25.4585 25.2618 27.7336 24.2876 29.1277H22.9369V25.3414C22.9369 25.0825 22.727 24.8726 22.4681 24.8726C22.2092 24.8726 21.9993 25.0824 21.9993 25.3414V29.1277H20.6485C19.6748 27.7343 20.118 25.4608 20.1232 25.4347C20.1748 25.1812 20.0112 24.9339 19.7578 24.8821C19.504 24.8301 19.2565 24.9937 19.2045 25.2474C19.1836 25.3498 18.7696 27.4492 19.5688 29.1277H18.0496C17.2305 29.1277 16.5718 28.4554 16.5925 27.6395C16.6633 24.8341 17.8316 22.7741 19.3576 21.6662C21.302 23.3304 24.1234 23.6384 26.4101 22.4141C26.8061 22.8455 27.2833 23.4857 27.6603 24.3562C27.7632 24.5937 28.0391 24.7029 28.2768 24.6001C28.5143 24.4972 28.6235 24.2211 28.5207 23.9836C28.1881 23.2157 27.7398 22.5052 27.2095 21.9012C28.5547 20.8962 29.4323 19.4126 29.6725 17.7497C31.304 17.0649 32.0769 15.3777 31.994 13.5879C31.9778 13.2375 31.8051 12.9192 31.5202 12.7147C30.2201 11.7812 28.7303 11.5329 27.4705 12.0229C26.1377 10.911 24.3908 10.4007 22.688 10.6043C22.5789 10.4527 22.4585 10.3107 22.3277 10.1784C22.4432 8.05212 21.9415 6.58474 20.8346 5.8153C19.2625 4.7223 17.0181 5.4498 16.2894 5.73393C14.6968 4.7928 12.8961 4.45824 11.1598 4.68549C10.8342 4.39112 10.082 3.79587 9.02333 3.47593C6.65095 2.75924 4.66838 3.96624 3.42295 5.10499C2.26782 6.16106 1.55744 7.22268 1.31144 8.26037C1.09763 9.16237 1.25419 10.0085 1.75238 10.6431C2.13295 11.1278 2.65376 11.4166 3.1817 11.481C2.87851 12.0293 2.59532 12.5957 2.33307 13.1797C2.22701 13.4159 2.33251 13.6934 2.56863 13.7995C2.80482 13.9056 3.08232 13.8001 3.18838 13.5639C3.59876 12.6502 4.06263 11.7822 4.57588 10.9619C5.3252 9.76468 6.57951 8.13681 7.59895 7.25399C10.9614 4.36112 16.1726 5.26537 18.3683 9.14743C18.2411 9.23137 18.138 9.31987 18.0431 9.45218C17.0045 10.8987 16.724 12.7512 17.7211 14.2074C16.6951 16.4291 17.0142 19.0882 18.6814 20.998C17.0761 22.2301 15.8228 24.3749 15.6683 27.2929C15.6298 28.0202 15.691 28.5361 16.1472 29.1279H12.9838C15.0685 25.9956 14.6713 21.6627 14.6517 21.4645C14.6263 21.2069 14.3968 21.0186 14.1391 21.044C13.8815 21.0694 13.6932 21.2989 13.7186 21.5565C13.7233 21.6043 14.1529 26.2771 11.8193 29.128H9.47633C9.3297 24.6967 9.82389 22.3456 10.1156 21.7103C10.2253 21.4774 10.1266 21.1993 9.8942 21.0879C9.66083 20.9759 9.3807 21.0744 9.26876 21.3079C9.23008 21.3886 8.34726 23.3038 8.53826 29.128H6.75676C4.47226 26.3082 5.45876 21.659 5.4692 21.6114C5.52489 21.3587 5.36532 21.1087 5.11264 21.0528C4.85995 20.997 4.60957 21.1565 4.55363 21.4093C4.5417 21.4634 4.26132 22.753 4.31332 24.4365C4.37038 26.2851 4.81388 27.8858 5.60476 29.1281H4.49195C2.68307 29.1281 1.17163 27.7479 1.01363 25.9479C0.703506 22.4136 1.36951 18.4307 2.50457 15.2634C2.59188 15.0196 2.46513 14.7512 2.22138 14.6639C1.97769 14.5766 1.70926 14.7034 1.62194 14.9471C0.443881 18.234 -0.243119 22.3524 0.0796308 26.0296C0.176568 27.1345 0.681444 28.1556 1.50119 28.9047C2.32013 29.6532 3.38232 30.0654 4.49195 30.0654H26.8866ZM3.77676 10.4691C3.38245 10.6692 2.83438 10.5029 2.48988 10.0641C1.53332 8.84562 2.73551 7.00387 4.05557 5.79693C5.37489 4.59074 6.5867 4.20112 7.6022 4.20112C8.60795 4.20112 9.42114 4.58349 9.95476 4.93355C7.80214 5.55705 6.4682 6.84249 5.03901 8.66799C4.59395 9.23668 4.15676 9.86181 3.77676 10.4691ZM30.9733 13.4763C31.0238 13.5126 31.0545 13.5691 31.0573 13.6313C31.1187 14.9561 30.6274 16.0692 29.734 16.6589C29.6894 15.2352 29.1547 13.8644 28.2276 12.7732C29.0977 12.5925 30.0827 12.8368 30.9733 13.4763ZM18.7314 10.1041C18.8658 9.90593 18.86 9.91318 19.1338 9.91074C20.056 9.90212 20.9895 10.1719 21.6442 10.8211C20.3274 11.2142 19.1103 12.0447 18.2651 13.2606C17.9015 12.4281 17.9733 11.2217 18.7314 10.1041ZM21.4065 9.49693C20.7632 9.15506 20.0661 9.00062 19.341 8.97474C18.8312 7.99462 18.1588 7.13362 17.2514 6.40099C19.8983 5.65318 21.3771 6.62881 21.4065 9.49693ZM24.6741 22.0776C20.1601 23.1461 16.4431 18.3282 18.7728 14.2128C20.471 11.2223 24.5373 10.5792 27.067 12.9169C28.5788 14.3109 29.1493 16.4504 28.5754 18.3861C28.0113 20.2891 26.4783 21.6456 24.6741 22.0776Z" fill="#EDF2F7"/>
</g>
<defs>
<clipPath id="clip0_1779_1036">
<rect width="32" height="32" fill="white"/>
</clipPath>
</defs>
</svg>
